<svg width="24" height="24" fill="none" xmlns="http://www.w3.org/2000/svg"><circle cx="12" cy="12" r="11.5" stroke="#fff"/><path d="M9.346 11.32l.165-.682c.266-.094.869-.305 1.15-.399.353-.117 1.668-.422 2.584.235.732.526.571 1.581.399 2.043-.196.673-.606 2.104-.681 2.442-.094.423-.61 1.785.258 1.95.695.131 1.245-.055 1.433-.165l-.165.681a7.621 7.621 0 01-1.362.493c-.869.235-1.714.212-2.489-.352-.62-.45-.477-1.566-.329-2.066.079-.314.296-1.16.54-2.044.306-1.103.493-1.714.118-2.137-.3-.338-1.206-.14-1.62 0z" fill="#fff"/><ellipse cx="13.268" cy="7.397" rx="1.526" ry="1.386" fill="#fff"/></svg>