<svg width="17" height="17" fill="none" xmlns="http://www.w3.org/2000/svg"><path d="M6.194 7.137s.863 2.978 4.148 4.039l.752-.898s.403-.612 1.378-.163c.974.449 2.43 1.36 2.896 1.7 0 0 .862.584.222 1.36-.64.774-2.241 2.12-2.756 2.352-.515.23-.698.326-1.637.071-.94-.254-4.12-1.376-6.75-4.416-2.631-3.039-2.903-5.537-2.903-5.537s-.1-.352 0-.587c.1-.234 1.392-2.164 2.568-3.034 0 0 .676-.707 1.358.15s1.315 1.85 1.74 2.767c.424.918.257 1.088-.118 1.42a64.5 64.5 0 01-.898.776z" stroke="#012141" stroke-width="2" stroke-miterlimit="10" stroke-linecap="round" stroke-linejoin="round"/></svg>